<svg xmlns="http://www.w3.org/2000/svg" viewBox="0 0 32 32" role="img" aria-label="Ansaur">
  <rect width="32" height="32" fill="#FFFFFF"/>
  <path fill="#3F6B4E" transform="translate(2.5254 28.7938) scale(0.038020 -0.038020)" d="M687.75 96.5Q700.25 71.75 701.125 54.125Q702 36.5 690.375 23.125Q678.75 9.75 653 -3.5Q613 -22.5 591.125 -14.75Q569.25 -7 550.25 33.25L353.75 442.75L159 33Q139.25 -6 117.375 -13.625Q95.5 -21.25 56 -2.5Q30.25 9.75 18.375 23.375Q6.5 37 7.75 55.25Q9 73.5 21.75 99.25L284.75 645.75Q294.75 665.75 314.25 677.875Q333.75 690 354.75 690Q369.75 690 382.625 684.625Q395.5 679.25 406.25 669.25Q417 659.25 423.75 644.75ZM185.75 153.75 247.75 283.25H461L522.75 153.75Z"/>
</svg>
